<?xml version="1.0" encoding="UTF-8"?>
<!DOCTYPE svg PUBLIC "-//W3C//DTD SVG 1.0//EN" "http://www.w3.org/TR/2001/REC-SVG-20010904/DTD/svg10.dtd">
<!-- Creator: CorelDRAW 2019 (64-Bit) -->
<svg class="animated" xmlns="http://www.w3.org/2000/svg" xml:space="preserve" width="17.222cm" height="4.64277cm" version="1.0" style="shape-rendering:geometricPrecision; text-rendering:geometricPrecision; image-rendering:optimizeQuality; fill-rule:evenodd; clip-rule:evenodd"
viewBox="0 0 13044.86 3516.67"
 xmlns:xlink="http://www.w3.org/1999/xlink">
 <defs>
  <style type="text/css">
   <![CDATA[
    .str0 {stroke:black;stroke-width:2.01;stroke-miterlimit:22.9256}
    .fil0 {fill:black}
    .fil1 {fill:#010101}
	.filz {fill:blue}
   ]]>
  </style>
 </defs>
 <g id="21dy-21">
 <path class="fil0 21dy-2" d="M477.88 2060c82.2,-41.58 221.71,-209.32 221.37,-306.11 -153.32,-276.45 109.69,-1278.75 659.62,-1158.67 346.31,75.62 -425.72,1084.54 -552.07,1206.4l-86.42 112.38 -4.45 4.8c-201.35,271.36 -317.2,496.05 -536.62,782.06 -68.68,89.54 -125.18,247.87 -123.87,390.89l1.42 33.43c6.98,91.33 40.04,173.35 111.88,222.74 138.39,95.14 555.46,147.01 713.21,91.69 251.85,-88.33 296.57,-299.95 630.27,-161.76 228.27,94.53 370.73,206.98 631.55,230.67 293.8,26.69 500.92,-14.36 780.82,-91.89 303.69,-84.12 793.9,-309.21 909.78,-626.56 -278.1,-127.27 -722.72,263.71 -1061.93,315.77 -425.44,65.3 -716.36,-292.26 -993.02,-591.26 -376.87,-526.07 -620.82,250.6 -828.25,295.78 -123.09,26.81 -187.64,-77.04 -194.75,-185.24 -19.78,-301.34 490.26,-751.77 698.51,-943 277.23,-254.59 686.18,-598.43 570.75,-1022.25 -38.49,-141.33 -227.34,-404.73 -354.06,-477.91 -46.15,-26.66 -99.46,-40.43 -156.19,-44.63l-134.71 5.72c-134.72,19.26 -272.36,74.32 -370.3,127.51 -333.63,181.22 -618.59,518.43 -805.16,844.75 -87.96,153.85 -220.69,420.54 -203.75,597.49 24.6,256.96 276.21,316.29 476.4,347.21z"/>
  <g id="21dy-1">
   <path class="fil0 21dy-1b" d="M3632.28 580.65c-56.77,25.63 -198.7,205.07 -227.09,256.34 -28.39,76.9 -28.39,281.98 0,384.52 0,410.14 85.16,1204.8 28.39,1563.68 -56.78,230.71 -85.16,692.13 227.09,692.13 283.86,25.63 198.7,-512.69 170.31,-692.13l-56.77 -1153.54c0,-76.9 0,-281.98 -28.39,-384.51 0,-76.9 113.55,-794.67 -113.54,-666.49z"/>
   <path class="fil0 21dy-1a" d="M2780.68 939.53c170.32,0 170.32,-102.54 283.87,-230.71 397.4,-487.05 879.98,-333.24 1021.91,-640.86 -227.09,-205.07 -624.5,102.54 -766.44,281.98 -113.54,102.54 -539.34,435.78 -539.34,589.59z"/>
  </g></g>
  <g id="21dy-Dy">
  <path class="fil0 str0 21dy-d" d="M4452.29 1708.78c67.83,108.99 137.83,175.8 209.98,200.48 72.18,24.63 129.58,67.28 172.24,127.9 42.63,60.67 28.71,86.66 -41.83,78.09 -311.62,-148.99 -503.46,-304.56 -575.54,-466.7 -72.08,-162.13 -71.13,-269.63 2.82,-322.41 73.9,-52.82 188.74,-48.55 344.42,12.78 155.68,61.32 262.88,90.34 321.63,86.92 40.09,-4.11 70.33,-23.01 90.77,-56.73 20.44,-33.71 -1.66,-275.17 -66.32,-724.4 89.21,-22.31 173.59,23.05 253.21,136.11l0 0 117.01 632.25c285.72,38.36 450.59,27.62 494.67,-32.24 44.08,-59.87 55.04,-122.68 32.91,-188.47 -22.13,-65.83 -159.82,-212.66 -413.17,-440.54 -253.3,-227.89 -403.77,-390.56 -451.4,-487.99 -47.63,-97.42 -74.85,-179.19 -81.62,-245.25 69.38,-26.44 165.04,22.16 287.03,145.81 69.37,186.98 231.5,388.42 486.39,604.28 254.94,215.9 408.53,436.61 460.8,662.29 3.55,74.27 -35.52,141.31 -117.25,201.05 -81.74,59.79 -316.11,38.33 -703.15,-64.28 -113.78,114.43 -254.34,123.55 -421.7,27.4 -167.33,-96.19 -286.23,-126.37 -356.62,-90.61 -70.44,35.77 -85.51,103.84 -45.27,204.24z"/>
  <path class="fil0 21dy-ytilde" d="M6197.68 622.91c116.24,90.67 204.93,152.35 367.39,133.37l75.43 -134.18c-111.74,-179.86 -429.58,-304.51 -442.82,0.81z"/>
  <path class="fil0 21dy-y" d="M6460.87 1558.73c-31.65,35.15 -344.3,122.43 -414.97,146.32 -140,47.3 -263.68,97.96 -395.44,164.97 -131.65,66.93 -235.27,126.43 -360.05,204.88 -110.94,69.75 -256.18,136.79 -355.34,210.05 -109.22,80.68 -227.83,158 -334.5,239.43 -53.44,40.8 -312.15,219.01 -343.69,282.94 -83.26,168.71 535.03,-309.64 585.33,-340.54 118.65,-72.9 218.34,-160.36 342,-225.71 160.41,-84.76 628.92,-261.74 807.98,-314.9 73.54,-21.83 152.96,-31.15 225.28,-54.55 79.09,-25.59 132.33,-44.25 216.03,-58.57 198.41,-33.95 249,-4.4 389.48,-171.95 91.75,-109.43 169.34,-299.22 161.53,-441.91 -1.03,-148.63 -144.51,-100.42 -175.62,32.07 -30.53,130.04 -117.72,148.4 -141.97,139.44 -67.75,9.54 -97.02,-237.74 -158.32,-253.81 -32.24,-8.43 -54.57,0.69 -83.3,14.77 -72.94,35.76 -97.19,132.33 -116.15,171.85 -12.45,113.14 39.21,101.9 90.71,181.33 13.44,20.74 55.02,54.16 61,73.9z"/>
  </g>
  <path class="fil0 str0 21dy-bd" d="M8557.81 3333.58l-6.39 102.29c-3.89,6.71 12.95,4.29 50.5,-7.23 191,-58.78 185.23,-6.76 181.46,-126.49 296.64,-141.79 607.4,-469.2 690.58,-642.08 130.83,-348.27 26.53,-594.94 -102.45,-706.48 -159.11,-48.87 -280.3,-4.71 -498.99,109.88l0 0 -7.35 -381.41c-78.84,-28.31 -161.49,25.03 -247.92,160.02l0 0 -3.56 202.61c-449.59,78.53 -746.43,251.97 -890.65,520.3 -35.81,171.13 258.63,224.03 876.44,102.22l-3.46 -28.16 5.2 0.33 -1.73 27.84c-210.25,90.83 -370.13,201.38 -476.2,275.81 -106.07,74.38 -160.19,156.59 -162.34,246.62 30.44,123.26 229.41,171.24 596.89,143.94zm22.59 -506.95l3.87 0.24 5.2 0.33 -16.69 329.19c-213.47,3.99 -339.18,-22.94 -377.19,-80.8 -37.97,-57.82 90.27,-140.83 384.81,-248.95zm291.25 -624.09c95.54,-86.75 181.3,-116.53 257.12,-89.24 75.88,27.3 215.53,111.64 185.05,348.84 -11.77,82.93 10.16,316.86 -486.22,601.61l44.05 -861.22zm-893.63 256.16c-9.59,-26.58 29.77,-67.03 118.1,-121.3 88.34,-54.31 260.37,-89.08 516.17,-104.28l0 0 -8.83 286.91c-430.22,88.38 -637.37,46.3 -625.44,-61.33z"/>
  <g id="21dy-Anc">
  <path class="fil0 str0 21dy-a" d="M9475.47 148.51c-166.56,76.09 -254.84,160.81 -264.93,254.13 71.09,-44.52 165.12,-80.93 282.17,-109.32 117.01,-28.34 228.67,-45.39 334.91,-51.15 -28,75.4 -178.77,329 -452.3,760.83 -273.52,431.87 -338.51,676.87 -194.9,734.99 116.28,78.28 260.22,12.57 431.83,-197.07 5,-28.72 -36.65,-24.59 -124.93,12.38 -88.32,36.99 -133.71,5.04 -136.25,-95.86 -2.5,-100.87 139.85,-400.77 427.02,-899.74 0,120.6 -8.07,309.6 -24.25,566.98 -16.14,257.39 -2.84,424.48 39.86,501.33 42.7,76.8 96.39,111.97 160.99,105.52 99.08,4.32 197.44,-17.43 295.09,-65.17 97.64,-47.74 165.12,-101.92 202.45,-162.59 37.32,-60.66 41.64,-92.07 12.91,-94.23l0 0 -196.01 88.28c-239.04,117.04 -349.8,0.19 -332.22,-350.52 17.58,-350.71 11.29,-637.01 -18.83,-858.85 149.32,-173.73 202.44,-265.61 159.37,-275.69 -143.57,0 -344.23,45.24 -602,135.72z"/>
  <path class="fil str0 21dy-n" d="M10355.41 1557.09c37.02,-1.83 66.41,-12.48 88.15,-31.93 28.7,-22.66 52.54,-81.92 71.51,-177.71 18.98,-95.79 33.32,-278.84 43.04,-549.13 159.21,-7.86 252.58,67.47 280.11,225.99 27.55,158.49 35.76,321.53 24.64,489.06 274.93,-8.33 432.28,-20.6 472.07,-36.79 39.81,-16.22 73.93,-35.41 102.39,-57.62 28.48,-22.22 39.69,-48.61 33.68,-79.16 -161.53,49.08 -320.27,67.13 -476.22,54.15 12.94,-94.4 10.4,-231.86 -7.65,-412.34 -18.05,-180.5 -106.69,-281.4 -265.89,-302.68 -146.23,1.83 -243.88,49.05 -292.96,141.61 -12.97,12.95 -17.81,82.49 -14.58,208.62 3.25,126.11 -16.19,302.09 -58.3,527.93z"/>
  <path class="fil0 str0 21dy-c" d="M11493.91 1591.35c-47.9,-9.14 -92.41,-102.38 -133.58,-279.71 -21.1,-107.95 -10.58,-230.2 31.56,-366.78 42.14,-136.58 123.9,-224.01 245.3,-262.28 48.22,39.68 96.27,103.23 144.13,190.71 -0.92,50.36 -27.12,88.67 -78.62,114.94 -79.3,-117.46 -125.15,-178.81 -137.57,-184.07 -12.4,-5.26 -34.71,10.75 -66.88,48.03 -32.18,37.26 -51.83,94.67 -58.97,172.19 -7.14,77.5 -0.16,165.64 21,264.41 21.13,98.75 40.26,156.4 57.37,172.96 17.12,16.56 31.55,22.12 43.33,16.69 11.75,-5.42 40.63,-47.74 86.59,-126.96 45.99,-79.22 81.02,-132.56 105.1,-160.05 24.1,-27.47 47.88,-43.58 71.4,-48.31 -3.85,43.19 -18.58,74.91 -44.22,95.17 -25.62,20.24 -71.89,83.3 -138.81,189.17 -66.95,105.85 -116,160.49 -147.13,163.89z"/>
 </g> 
 <g id="21dy-St">
  <path class="fil0 str0 21dy-s" d="M8421.22 1099.96c13.63,55.47 -40.17,159.71 -161.46,312.74 -121.29,152.97 -273.8,251.03 -457.55,294.15 -183.75,43.11 -342.35,0.24 -475.84,-128.71 -133.49,-128.95 -202.89,-222.8 -208.15,-281.56 11.85,-24.81 66.93,3.74 165.25,85.58 98.28,81.9 234.29,105.44 407.93,70.75 173.67,-34.7 316.9,-167.52 429.65,-398.52 -431.06,-350.22 -679.01,-591.93 -743.85,-724.99 -64.84,-133.07 -89.34,-222.46 -73.5,-268.17 15.87,-45.65 98.22,-57.09 247.04,-34.31 148.81,22.84 272.69,40.42 371.63,52.79 98.98,12.38 178.39,106.29 238.26,281.72l0 0 -561.2 -45.31c-74.83,15.47 -71.31,62.89 10.57,142.45 81.87,79.49 226.41,171.46 433.65,275.94 207.25,104.47 333.11,226.28 377.58,365.44z"/>
  <path class="fil0 str0 21dy-t" d="M8692.57 1676.13c74.5,-29.04 115.93,-67.87 124.25,-116.46 -34.24,-112.31 -50.32,-220.13 -48.24,-323.47 2.08,-103.38 2.67,-297.23 1.73,-581.58 69.88,-21.23 109.69,-61.44 119.42,-120.68 1.83,-13.41 -12.98,-17.04 -44.43,-10.88 -31.48,6.14 -60.4,14.8 -86.78,25.98 -12.97,-176.55 -39.45,-256.01 -79.5,-238.42 -40.01,17.6 -71.16,56.29 -93.36,116.06 28.68,63.69 42.11,113.98 40.25,150.84 -113.85,37.44 -182.8,66.49 -206.88,87.15 -24.06,20.67 -38.86,44.96 -44.42,72.92 18.51,13.38 106.44,-6.43 263.81,-59.51 11.56,131.86 11.68,307.67 0.34,527.5 -11.33,219.84 6.6,376.69 53.81,470.54z"/>
  </g>
   <path class="fil0 str0 21dy-e" d="M12916.05 1735.82c69.11,66.98 15.49,68.97 -160.88,5.95 -176.32,-63.04 -336.37,-158.65 -480.17,-286.85 -143.76,-128.21 -240.41,-273.21 -289.88,-434.96 -26.73,-148.36 52.01,-277.43 236.23,-387.22 157.19,-68.6 172.46,-133.22 45.83,-193.95 -203.98,-112.78 -302.88,-202.57 -296.73,-269.3 21.99,-89.08 112.97,-139.42 272.93,-151.01 159.96,-11.59 298.72,-4.83 416.3,20.36 117.62,25.14 215.05,68.57 292.35,130.33 77.34,61.72 105.83,99.32 85.5,112.76 -20.28,13.48 -120.27,2.61 -299.94,-32.59 -179.68,-35.21 -303.96,-27.19 -372.85,24 -25.22,55.93 16.65,111.39 125.67,166.35 108.98,55 176.8,108.13 203.41,159.49 26.61,51.36 -66.05,122.48 -277.92,213.38 -211.92,90.91 -276.7,227 -194.41,408.29 82.29,181.29 313.81,352.96 694.57,514.96z"/>
</svg>